<?xml version="1.0" encoding="utf-8"?><!-- Uploaded to: SVG Repo, www.svgrepo.com, Generator: SVG Repo Mixer Tools -->
<svg width="800px" height="800px" viewBox="0 -0.5 25 25" fill="none" xmlns="http://www.w3.org/2000/svg">
<path fill-rule="evenodd" clip-rule="evenodd" d="M8.99999 16H16V15.25C16.0669 13.2488 14.5011 11.5711 12.5 11.5C10.4989 11.5711 8.9331 13.2488 8.99999 15.25V16Z" stroke="#000000" stroke-width="1.5" stroke-linecap="round" stroke-linejoin="round"/>
<path d="M13.25 7C13.25 6.58579 12.9142 6.25 12.5 6.25C12.0858 6.25 11.75 6.58579 11.75 7H13.25ZM11.75 8.8C11.75 9.21421 12.0858 9.55 12.5 9.55C12.9142 9.55 13.25 9.21421 13.25 8.8H11.75ZM17.9877 9.63189C18.2765 9.33494 18.2698 8.86011 17.9729 8.57133C17.6759 8.28255 17.2011 8.28917 16.9123 8.58611L17.9877 9.63189ZM15.6743 9.85911C15.3855 10.1561 15.3922 10.6309 15.6891 10.9197C15.9861 11.2085 16.4609 11.2018 16.7497 10.9049L15.6743 9.85911ZM8.08767 8.58611C7.79889 8.28917 7.32406 8.28255 7.02711 8.57133C6.73017 8.86011 6.72355 9.33494 7.01233 9.63189L8.08767 8.58611ZM8.25033 10.9049C8.53911 11.2018 9.01394 11.2085 9.31089 10.9197C9.60783 10.6309 9.61445 10.1561 9.32567 9.85911L8.25033 10.9049ZM19.5 16.75C19.9142 16.75 20.25 16.4142 20.25 16C20.25 15.5858 19.9142 15.25 19.5 15.25V16.75ZM16 15.25C15.5858 15.25 15.25 15.5858 15.25 16C15.25 16.4142 15.5858 16.75 16 16.75V15.25ZM9 16.75C9.41421 16.75 9.75 16.4142 9.75 16C9.75 15.5858 9.41421 15.25 9 15.25V16.75ZM5.5 15.25C5.08579 15.25 4.75 15.5858 4.75 16C4.75 16.4142 5.08579 16.75 5.5 16.75V15.25ZM11.75 7V8.8H13.25V7H11.75ZM16.9123 8.58611L15.6743 9.85911L16.7497 10.9049L17.9877 9.63189L16.9123 8.58611ZM7.01233 9.63189L8.25033 10.9049L9.32567 9.85911L8.08767 8.58611L7.01233 9.63189ZM19.5 15.25H16V16.75H19.5V15.25ZM9 15.25H5.5V16.75H9V15.25Z" fill="#000000"/>
</svg>